<svg xmlns="http://www.w3.org/2000/svg" viewBox="0 0 515 515" width="515" height="515">
	<style>
		tspan { white-space:pre }
		.shp0 { fill: #ffffff } 
		#circle { fill: #ffffff } 
		.shp1 { fill: #000 } 
		.shp2 { fill: #000 } 
	</style>
	<path id="circle" class="shp0" d="M257.17 513.16C398.32 513.16 512.74 398.68 512.74 257.48C512.74 116.27 398.32 1.8 257.17 1.8C116.02 1.8 1.59 116.27 1.59 257.48C1.59 398.68 116.02 513.16 257.17 513.16Z" />
	<path id="headwhite" class="shp0" d="M147.25 121.58L346.71 159.89L326.54 264.88L127.08 226.57L147.25 121.58Z" />
	<g id="pole">
		<path id="Path 4" fill-rule="evenodd" class="shp1" d="M371.94 398.36C371.94 406.05 367.02 409.89 360.57 409.89C354.36 409.89 349.58 406.03 349.58 398.36L349.58 372.82C349.58 365.15 354.36 361.31 360.57 361.31C367.02 361.31 371.94 365.15 371.94 372.82L371.94 398.36ZM366.16 398.36L366.16 372.82C366.16 367.76 363.92 366.46 360.57 366.46C357.45 366.46 355.33 367.76 355.33 372.82L355.33 398.36C355.33 403.42 357.45 404.77 360.57 404.77C363.92 404.77 366.16 403.42 366.16 398.36Z" />
		<path id="Path 5" fill-rule="evenodd" class="shp1" d="M360.57 410.34C353.72 410.34 349.11 405.86 349.11 398.36L349.11 372.83C349.11 365.32 353.72 360.86 360.57 360.86C367.65 360.86 372.39 365.32 372.39 372.83L372.39 398.36C372.39 405.86 367.65 410.34 360.57 410.34ZM360.57 361.77C354.19 361.77 350.03 365.79 350.03 372.83L350.03 398.36C350.03 405.39 354.19 409.43 360.57 409.43C367.18 409.43 371.49 405.39 371.49 398.36L371.49 372.83C371.49 365.79 367.18 361.77 360.57 361.77ZM360.57 405.22C356.89 405.22 354.88 403.24 354.88 398.36L354.88 372.83C354.88 367.91 356.84 365.99 360.57 365.99C364.55 365.99 366.61 367.91 366.61 372.83L366.61 398.36C366.61 403.24 364.5 405.22 360.57 405.22ZM360.57 366.91C357.87 366.91 355.79 367.87 355.79 372.83L355.79 398.36C355.79 403.34 357.87 404.32 360.57 404.32C363.5 404.32 365.7 403.34 365.7 398.36L365.7 372.83C365.7 367.87 363.5 366.91 360.57 366.91ZM322.49 406.76C322.49 408.71 321.35 409.93 319.52 409.93C317.71 409.93 316.57 408.71 316.57 406.76L316.57 364.78C316.57 362.96 317.51 361.54 319.72 361.54L325.73 361.54C335.37 361.54 339.75 366.73 339.75 375.08C339.75 383.44 334.7 388.5 325.94 388.5L322.49 388.5L322.49 406.76ZM322.49 383.37L325.53 383.37C331.4 383.37 333.82 380.54 333.82 375.08C333.82 370.37 332.67 366.66 325.26 366.66L322.49 366.66L322.49 383.37Z" />
		<path id="Path 6" fill-rule="evenodd" class="shp1" d="M319.52 410.37C317.44 410.37 316.11 408.95 316.11 406.75L316.11 364.78C316.11 362.46 317.46 361.08 319.73 361.08L325.73 361.08C335.25 361.08 340.2 366.19 340.2 375.08C340.2 383.64 335.05 388.95 325.94 388.95L322.95 388.95L322.95 406.75C322.95 408.95 321.6 410.37 319.52 410.37ZM319.73 361.99C317.37 361.99 317.01 363.74 317.01 364.78L317.01 406.75C317.01 408.44 317.96 409.47 319.52 409.47C321.1 409.47 322.03 408.44 322.03 406.75L322.03 388.04L325.94 388.04C334.49 388.04 339.29 383.07 339.29 375.08C339.29 366.65 334.81 361.99 325.73 361.99L319.73 361.99ZM325.53 383.83L322.03 383.83L322.03 366.2L325.27 366.2C333.71 366.2 334.28 370.96 334.28 375.08C334.28 380.81 331.59 383.83 325.53 383.83ZM322.95 382.92L325.53 382.92C331.07 382.92 333.37 380.28 333.37 375.08C333.37 371.15 332.86 367.12 325.27 367.12L322.95 367.12L322.95 382.92ZM390.73 404.19L402.37 404.19C404.04 404.19 405.26 405.06 405.26 406.95C405.26 408.84 404.04 409.72 402.37 409.72L387.97 409.72C385.75 409.72 384.82 408.3 384.82 406.48L384.82 364.51C384.82 362.56 385.96 361.34 387.77 361.34C389.59 361.34 390.73 362.56 390.73 364.51L390.73 404.19Z" />
		<path id="Path 7" fill-rule="evenodd" class="shp1" d="M402.36 410.18L387.98 410.18C385.71 410.18 384.35 408.79 384.35 406.49L384.35 364.5C384.35 362.3 385.7 360.88 387.77 360.88C389.85 360.88 391.18 362.3 391.18 364.5L391.18 403.73L402.36 403.73C404.47 403.73 405.72 404.94 405.72 406.95C405.72 408.97 404.47 410.18 402.36 410.18ZM387.77 361.8C386.2 361.8 385.26 362.81 385.26 364.5L385.26 406.49C385.26 407.52 385.62 409.26 387.98 409.26L402.36 409.26C403.28 409.26 404.81 408.96 404.81 406.95C404.81 404.94 403.28 404.65 402.36 404.65L390.28 404.65L390.28 364.5C390.28 362.81 389.35 361.8 387.77 361.8ZM421.7 403.99L433.92 403.99C435.59 403.99 436.82 404.87 436.82 406.76C436.82 408.64 435.59 409.52 433.92 409.52L418.95 409.52C416.71 409.52 415.78 408.1 415.78 406.29L415.78 364.78C415.78 362.95 416.71 361.53 418.95 361.53L433.92 361.53C435.59 361.53 436.82 362.42 436.82 364.3C436.82 366.19 435.59 367.06 433.92 367.06L421.7 367.06L421.7 382.78L432.64 382.78C434.32 382.78 435.53 383.65 435.53 385.53C435.53 387.42 434.32 388.29 432.64 388.29L421.7 388.29L421.7 403.99Z" />
	</g>
	<path id="headblackhat" fill-rule="evenodd" class="shp2" d="M433.91 409.97L418.94 409.97C416.67 409.97 415.32 408.59 415.32 406.28L415.32 364.77C415.32 362.47 416.67 361.08 418.94 361.08L433.91 361.08C435.98 361.08 437.27 362.31 437.27 364.31C437.27 366.3 435.98 367.53 433.91 367.53L422.15 367.53L422.15 382.31L432.63 382.31C434.74 382.31 435.99 383.52 435.99 385.52C435.99 387.55 434.74 388.75 432.63 388.75L422.15 388.75L422.15 403.53L433.91 403.53C436.02 403.53 437.27 404.73 437.27 406.75C437.27 408.77 436.02 409.97 433.91 409.97ZM418.94 362C416.58 362 416.23 363.75 416.23 364.77L416.23 406.28C416.23 407.32 416.58 409.06 418.94 409.06L433.91 409.06C434.82 409.06 436.36 408.75 436.36 406.75C436.36 404.75 434.82 404.44 433.91 404.44L421.24 404.44L421.24 387.84L432.63 387.84C433.54 387.84 435.08 387.54 435.08 385.52C435.08 383.52 433.54 383.23 432.63 383.23L421.24 383.23L421.24 366.61L433.91 366.61C434.82 366.61 436.36 366.31 436.36 364.31C436.36 362.29 434.82 362 433.91 362L418.94 362ZM397.27 213.01C395.56 236.63 342.26 231.16 342.26 231.16L339.61 240.45C336.33 250.44 339.43 260.88 339.43 260.88C340.57 266.85 342.66 271.6 344.18 276.25C345.98 281.72 348.87 287.14 351.07 299.75C353.27 312.39 355 319.15 355 319.15C360.08 341.63 340.94 336.47 337.1 335.18C332.61 333.67 337.92 335.39 324.82 330.92C313.53 327.06 313.14 327.39 313.14 327.39C310.77 326.2 305.69 341.19 305.69 341.22C305.04 346.07 300.86 345.18 300.86 345.18C295.55 344.7 295.6 344.33 288.13 344.11C287.15 344.08 283.04 343.79 282.36 344.73C281.56 345.86 284.23 347.21 286.12 348.87L295.2 355.33C298.4 358.08 296.18 360.16 296.18 360.16C295.18 361.8 293.57 364 292.99 365.46C285.76 383.82 280.2 393.31 269.65 391.5C269.65 391.5 257.68 387.43 249.33 382.12C249.33 382.12 241.85 377.12 238.76 381.9C235.73 386.58 234.02 387.45 236.06 389.64C236.79 390.43 240.03 394.74 250.6 403.95C261.17 413.17 266.21 417.19 273.33 424C276.68 427.21 280.42 430.66 274.15 432.74C274.15 432.74 243.68 446.33 241.71 447.24C239.75 448.17 237.53 446.79 237.53 446.79C237.53 446.79 92.78 383.19 89.1 381.35C85.42 379.51 85.91 376.05 85.91 376.05C85.91 376.05 93.57 339.33 103.61 301.7C104.82 297.16 111.39 301.09 111.39 301.09C115.17 303.2 118.56 305.04 118.56 305.04C121.21 307.27 123.03 304.77 123.03 304.77L128.86 292.01C130.39 283.21 129.4 275.37 123.01 252.79C116.62 230.22 114.16 214.54 114.16 214.54C114.16 214.54 67.47 203.49 69.93 184.13C72.38 164.77 117.5 167.2 117.5 167.2C117.5 167.2 121.54 145.89 124.98 127.45C128.41 109.02 148 58.13 244.83 67.34C341.65 76.56 349.81 122.54 350.75 131.16C353.49 156.51 348.13 189.36 348.13 189.36C348.13 189.36 398.59 194.89 397.27 213.01ZM303.29 171.36C303.79 168.49 304.62 161.05 304.81 157.38C304.9 156.06 304.43 155.23 302.71 154.93C291.17 152.95 270.35 149.79 260.37 147.47C259.32 154.42 258.14 159.57 256.85 165.28C255.53 170.4 253.85 175.75 252.6 180.43C252.18 182 252.61 182.97 254.46 183.44C281.15 188.78 292.34 203.03 289.13 221.63C286.86 234.76 277.88 243.89 268.62 245.87C268 246.04 268.62 246.75 269.52 246.75C281.74 247.24 296.14 238.59 299.02 222C302.54 201.53 288.82 187.28 263.84 181.48C262.44 181.09 261.66 180.37 261.97 178.64C262.11 176.14 263.01 171.69 264.31 166.72C265.23 163.17 266.75 158.68 268.65 154.55C269.15 153.31 269.98 152.85 270.98 153.03L283.78 155.39C298.06 157.85 299.92 163.36 300.05 171.25C300.03 172.14 303.01 172.95 303.29 171.36ZM279.31 220.97C282.06 204.97 270.18 192.07 245.93 187.3C244.35 187.03 244.02 186.38 244.15 184.77C244.47 180.23 245.37 174.14 247.15 167.32C248.9 159.76 251.97 152.27 254.55 146.78L249.65 145.93C248.78 145.77 247.83 146.95 247.72 148.56C246.69 153.58 245.36 160.48 243.69 167.61C241.86 174.72 239.89 180.18 238.43 186.9C238.19 188.34 239.06 189.23 240.8 189.54C266.73 194.01 276.09 206.01 273.6 220.44C271.27 234 261.84 243.05 248.73 240.79C236.18 238.64 232.23 229.77 231.96 220.97C231.94 220.22 229.21 219.76 228.93 220.45C228.14 222.53 226.92 227.82 227.25 231.14C227.72 236.13 232.47 241.25 246.88 243.74L247.04 243.76C264.48 246.78 276.62 236.54 279.31 220.97ZM203.44 175.51C202.05 174.98 200.95 175.38 201.86 176.13C208.94 180.62 213.82 190.22 211.24 205.22C208.55 220.79 199.98 230 191.07 232.63C190.13 232.91 191.5 233.59 192.71 233.5C203.57 233.3 217.37 224.69 220.45 206.81C223.29 190.37 214.24 179.16 203.44 175.51ZM201.43 203.52C204.09 188.1 198.84 173.82 185.43 171.52C175.34 169.78 168.66 174.12 166.43 176.7L165.86 176.6C169.2 158.04 181.51 136.54 199.83 139.7C211.64 141.74 215.07 151.99 215.56 159.49C215.57 160.24 218.31 160.71 218.58 160.01C219.39 157.93 220.44 153.51 220.3 150.07C219.79 145.24 215.07 139.06 201.24 136.68C176.3 132.38 160.08 152.44 154.75 183.3C150.04 210.69 156.82 228.19 173.54 231.08L173.68 231.1C188.8 233.72 198.65 219.68 201.43 203.52ZM156.02 226.72C147.41 219.01 141 204.54 145.26 179.89C149.45 155.51 162.83 138.22 179.61 134.73C180.55 134.45 179.07 133.6 177.86 133.69C160.77 135.49 144.13 152.81 139.64 178.91C135.09 205.3 145.02 221.71 154.08 226.83C155.31 227.49 156.67 227.28 156.02 226.72ZM316.46 240.83C315.89 240.73 315.76 241.47 316.03 241.66C317.01 242.86 318.1 245.13 317.58 248.16C317.03 251.33 314.73 253.6 311.68 253.08C309.1 252.62 307.01 250.05 307.64 246.44C308.13 243.56 309.81 241.62 310.99 240.78C311.61 240.59 311.42 239.97 310.85 239.87C307.8 239.49 303.41 241.71 302.68 245.88C301.77 251.22 305.93 254.62 311.13 255.5L311.26 255.53C319.48 256.95 324.8 255.34 325.77 249.72C326.49 245.54 322.95 241.95 316.46 240.83ZM195.93 202.73C193.37 217.58 185.68 229.47 175.73 227.75L175.59 227.73C163.78 225.68 160.7 210 163.26 192.49C163.86 189.03 164.29 186.58 165.29 184.22C167.25 179.67 174.31 173.17 184.11 174.85C195.07 176.74 198.22 189.46 195.93 202.73Z" />
</svg>
