<?xml version="1.0" standalone="no"?>
<!DOCTYPE svg PUBLIC "-//W3C//DTD SVG 20010904//EN"
 "http://www.w3.org/TR/2001/REC-SVG-20010904/DTD/svg10.dtd">
<svg version="1.0" xmlns="http://www.w3.org/2000/svg"
 width="298.000000pt" height="298.000000pt" viewBox="0 0 298.000000 298.000000"
 preserveAspectRatio="xMidYMid meet">
<metadata>
Created by potrace 1.11, written by Peter Selinger 2001-2013
</metadata>
<g transform="translate(0.000000,298.000000) scale(0.100000,-0.100000)"
fill="#000000" stroke="none">
<path d="M1050 2960 c-26 -26 -25 -40 9 -108 l29 -58 -36 0 c-191 -4 -397 -16
-412 -24 -27 -15 -36 -55 -18 -83 9 -12 38 -45 67 -74 28 -28 51 -55 51 -60 0
-4 -62 -35 -138 -67 -268 -116 -301 -133 -308 -160 -12 -51 10 -66 209 -137
20 -7 37 -15 37 -19 0 -3 -68 -56 -150 -119 -82 -62 -152 -122 -155 -132 -9
-26 3 -57 24 -69 10 -5 63 -12 117 -16 54 -3 101 -8 103 -10 3 -3 -69 -119
-147 -239 -47 -72 -49 -89 -16 -137 26 -38 29 -49 29 -132 1 -76 5 -100 27
-146 27 -57 90 -127 136 -151 36 -18 42 -28 42 -65 0 -44 45 -196 80 -272 61
-132 185 -282 295 -358 53 -36 67 -54 44 -54 -46 0 -279 -142 -379 -230 l-45
-40 940 0 940 1 -50 46 c-83 77 -328 223 -374 223 -22 0 -10 18 27 43 65 43
158 134 211 206 90 122 165 297 177 416 5 52 12 61 87 115 42 30 91 99 110
158 9 26 14 73 12 123 -2 75 0 82 27 116 15 20 28 43 28 53 0 9 -43 85 -96
169 -53 83 -95 154 -93 155 2 2 49 7 104 11 55 4 107 11 117 16 21 11 31 43
23 68 -3 11 -73 70 -155 133 -83 62 -150 116 -150 119 0 3 30 16 68 29 129 45
171 67 177 93 11 42 -10 62 -112 107 -54 24 -125 55 -158 70 -33 15 -86 38
-117 51 -32 13 -58 27 -58 30 0 3 26 34 58 69 31 34 61 69 65 77 12 20 0 61
-21 72 -16 9 -190 20 -380 24 -34 1 -62 5 -62 10 0 4 11 29 25 57 30 60 31 74
4 101 -17 17 -28 20 -56 14 -20 -3 -43 -10 -52 -15 -9 -5 -74 -29 -146 -54
-71 -24 -141 -48 -155 -54 -19 -7 -45 -2 -120 25 -159 58 -293 103 -307 103
-7 0 -22 -9 -33 -20z"/>
</g>
</svg>
